<?xml version="1.0" encoding="UTF-8"?>
<svg viewBox="0 0 1200 630" xmlns="http://www.w3.org/2000/svg" role="img" aria-label="BT appears in public spending under 116 different names."><title>BT appears in public spending under 116 different names.</title><desc>116 spokes converging on one company</desc><style>
text { font-family: system-ui, -apple-system, "Segoe UI", sans-serif; }
.t-label { font-size: 14px; fill: #61656d; }
.t-value { font-size: 14px; fill: #16181c; font-weight: 600;
           font-variant-numeric: tabular-nums; }
.t-big   { font-size: 62px; fill: #0e6e63; font-weight: 700;
           font-variant-numeric: tabular-nums; }
.t-unit  { font-size: 15px; fill: #61656d; }
.p-key   { font-size: 9.5px; fill: #61656d; font-weight: 600;
           letter-spacing: .09em; }
.p-val   { font-size: 12px; fill: #16181c; }
.p-mono  { font-size: 11px; fill: #16181c;
           font-family: ui-monospace, Menlo, Consolas, monospace; }

.h-kicker { font-size: 15px; fill: #61656d; font-weight: 600;
            letter-spacing: .11em; }
.h-title  { font-size: 44px; fill: #16181c; font-weight: 700; }
.h-title2 { font-size: 31px; fill: #16181c; font-weight: 700; }
.h-sub    { font-size: 17px; fill: #61656d; }
.h-huge   { font-size: 150px; fill: #0e6e63; font-weight: 700;
            font-variant-numeric: tabular-nums; }
.h-unit   { font-size: 22px; fill: #16181c; font-weight: 600; }
.h-note   { font-size: 13px; fill: #61656d; }
</style><rect width="1200" height="630" fill="#ffffff"/><rect x="0" y="0" width="6" height="630" fill="#0e6e63"/><text x="56" y="86" class="h-kicker">ONE COMPANY, SPELT 116 WAYS</text><text x="56" y="124" class="h-title2">BT appears in public</text><text x="56" y="162" class="h-title2">spending under 116</text><text x="56" y="200" class="h-title2">different names.</text><line x1="940" y1="300" x2="940.0" y2="95.0" stroke="#0e6e63" stroke-width="0.9" opacity=".5"/><line x1="940" y1="300" x2="951.1" y2="95.3" stroke="#0e6e63" stroke-width="0.9" opacity=".5"/><line x1="940" y1="300" x2="962.2" y2="96.2" stroke="#0e6e63" stroke-width="0.9" opacity=".5"/><line x1="940" y1="300" x2="973.2" y2="97.7" stroke="#0e6e63" stroke-width="0.9" opacity=".5"/><line x1="940" y1="300" x2="984.1" y2="99.8" stroke="#0e6e63" stroke-width="0.9" opacity=".5"/><line x1="940" y1="300" x2="994.8" y2="102.5" stroke="#0e6e63" stroke-width="0.9" opacity=".5"/><line x1="940" y1="300" x2="1005.5" y2="105.7" stroke="#0e6e63" stroke-width="0.9" opacity=".5"/><line x1="940" y1="300" x2="1015.9" y2="109.6" stroke="#0e6e63" stroke-width="0.9" opacity=".5"/><line x1="940" y1="300" x2="1026.1" y2="113.9" stroke="#0e6e63" stroke-width="0.9" opacity=".5"/><line x1="940" y1="300" x2="1036.0" y2="118.9" stroke="#0e6e63" stroke-width="0.9" opacity=".5"/><line x1="940" y1="300" x2="1045.7" y2="124.3" stroke="#0e6e63" stroke-width="0.9" opacity=".5"/><line x1="940" y1="300" x2="1055.0" y2="130.3" stroke="#0e6e63" stroke-width="0.9" opacity=".5"/><line x1="940" y1="300" x2="1064.1" y2="136.8" stroke="#0e6e63" stroke-width="0.9" opacity=".5"/><line x1="940" y1="300" x2="1072.7" y2="143.8" stroke="#0e6e63" stroke-width="0.9" opacity=".5"/><line x1="940" y1="300" x2="1081.0" y2="151.2" stroke="#0e6e63" stroke-width="0.9" opacity=".5"/><line x1="940" y1="300" x2="1088.8" y2="159.0" stroke="#0e6e63" stroke-width="0.9" opacity=".5"/><line x1="940" y1="300" x2="1096.2" y2="167.3" stroke="#0e6e63" stroke-width="0.9" opacity=".5"/><line x1="940" y1="300" x2="1103.2" y2="175.9" stroke="#0e6e63" stroke-width="0.9" opacity=".5"/><line x1="940" y1="300" x2="1109.7" y2="185.0" stroke="#0e6e63" stroke-width="0.9" opacity=".5"/><line x1="940" y1="300" x2="1115.7" y2="194.3" stroke="#0e6e63" stroke-width="0.9" opacity=".5"/><line x1="940" y1="300" x2="1121.1" y2="204.0" stroke="#0e6e63" stroke-width="0.9" opacity=".5"/><line x1="940" y1="300" x2="1126.1" y2="213.9" stroke="#0e6e63" stroke-width="0.9" opacity=".5"/><line x1="940" y1="300" x2="1130.4" y2="224.1" stroke="#0e6e63" stroke-width="0.9" opacity=".5"/><line x1="940" y1="300" x2="1134.3" y2="234.5" stroke="#0e6e63" stroke-width="0.9" opacity=".5"/><line x1="940" y1="300" x2="1137.5" y2="245.2" stroke="#0e6e63" stroke-width="0.9" opacity=".5"/><line x1="940" y1="300" x2="1140.2" y2="255.9" stroke="#0e6e63" stroke-width="0.9" opacity=".5"/><line x1="940" y1="300" x2="1142.3" y2="266.8" stroke="#0e6e63" stroke-width="0.9" opacity=".5"/><line x1="940" y1="300" x2="1143.8" y2="277.8" stroke="#0e6e63" stroke-width="0.9" opacity=".5"/><line x1="940" y1="300" x2="1144.7" y2="288.9" stroke="#0e6e63" stroke-width="0.9" opacity=".5"/><line x1="940" y1="300" x2="1145.0" y2="300.0" stroke="#0e6e63" stroke-width="0.9" opacity=".5"/><line x1="940" y1="300" x2="1144.7" y2="311.1" stroke="#0e6e63" stroke-width="0.9" opacity=".5"/><line x1="940" y1="300" x2="1143.8" y2="322.2" stroke="#0e6e63" stroke-width="0.9" opacity=".5"/><line x1="940" y1="300" x2="1142.3" y2="333.2" stroke="#0e6e63" stroke-width="0.9" opacity=".5"/><line x1="940" y1="300" x2="1140.2" y2="344.1" stroke="#0e6e63" stroke-width="0.9" opacity=".5"/><line x1="940" y1="300" x2="1137.5" y2="354.8" stroke="#0e6e63" stroke-width="0.9" opacity=".5"/><line x1="940" y1="300" x2="1134.3" y2="365.5" stroke="#0e6e63" stroke-width="0.9" opacity=".5"/><line x1="940" y1="300" x2="1130.4" y2="375.9" stroke="#0e6e63" stroke-width="0.9" opacity=".5"/><line x1="940" y1="300" x2="1126.1" y2="386.1" stroke="#0e6e63" stroke-width="0.9" opacity=".5"/><line x1="940" y1="300" x2="1121.1" y2="396.0" stroke="#0e6e63" stroke-width="0.9" opacity=".5"/><line x1="940" y1="300" x2="1115.7" y2="405.7" stroke="#0e6e63" stroke-width="0.9" opacity=".5"/><line x1="940" y1="300" x2="1109.7" y2="415.0" stroke="#0e6e63" stroke-width="0.9" opacity=".5"/><line x1="940" y1="300" x2="1103.2" y2="424.1" stroke="#0e6e63" stroke-width="0.9" opacity=".5"/><line x1="940" y1="300" x2="1096.2" y2="432.7" stroke="#0e6e63" stroke-width="0.9" opacity=".5"/><line x1="940" y1="300" x2="1088.8" y2="441.0" stroke="#0e6e63" stroke-width="0.9" opacity=".5"/><line x1="940" y1="300" x2="1081.0" y2="448.8" stroke="#0e6e63" stroke-width="0.9" opacity=".5"/><line x1="940" y1="300" x2="1072.7" y2="456.2" stroke="#0e6e63" stroke-width="0.9" opacity=".5"/><line x1="940" y1="300" x2="1064.1" y2="463.2" stroke="#0e6e63" stroke-width="0.9" opacity=".5"/><line x1="940" y1="300" x2="1055.0" y2="469.7" stroke="#0e6e63" stroke-width="0.9" opacity=".5"/><line x1="940" y1="300" x2="1045.7" y2="475.7" stroke="#0e6e63" stroke-width="0.9" opacity=".5"/><line x1="940" y1="300" x2="1036.0" y2="481.1" stroke="#0e6e63" stroke-width="0.9" opacity=".5"/><line x1="940" y1="300" x2="1026.1" y2="486.1" stroke="#0e6e63" stroke-width="0.9" opacity=".5"/><line x1="940" y1="300" x2="1015.9" y2="490.4" stroke="#0e6e63" stroke-width="0.9" opacity=".5"/><line x1="940" y1="300" x2="1005.5" y2="494.3" stroke="#0e6e63" stroke-width="0.9" opacity=".5"/><line x1="940" y1="300" x2="994.8" y2="497.5" stroke="#0e6e63" stroke-width="0.9" opacity=".5"/><line x1="940" y1="300" x2="984.1" y2="500.2" stroke="#0e6e63" stroke-width="0.9" opacity=".5"/><line x1="940" y1="300" x2="973.2" y2="502.3" stroke="#0e6e63" stroke-width="0.9" opacity=".5"/><line x1="940" y1="300" x2="962.2" y2="503.8" stroke="#0e6e63" stroke-width="0.9" opacity=".5"/><line x1="940" y1="300" x2="951.1" y2="504.7" stroke="#0e6e63" stroke-width="0.9" opacity=".5"/><line x1="940" y1="300" x2="940.0" y2="505.0" stroke="#0e6e63" stroke-width="0.9" opacity=".5"/><line x1="940" y1="300" x2="928.9" y2="504.7" stroke="#0e6e63" stroke-width="0.9" opacity=".5"/><line x1="940" y1="300" x2="917.8" y2="503.8" stroke="#0e6e63" stroke-width="0.9" opacity=".5"/><line x1="940" y1="300" x2="906.8" y2="502.3" stroke="#0e6e63" stroke-width="0.9" opacity=".5"/><line x1="940" y1="300" x2="895.9" y2="500.2" stroke="#0e6e63" stroke-width="0.9" opacity=".5"/><line x1="940" y1="300" x2="885.2" y2="497.5" stroke="#0e6e63" stroke-width="0.9" opacity=".5"/><line x1="940" y1="300" x2="874.5" y2="494.3" stroke="#0e6e63" stroke-width="0.9" opacity=".5"/><line x1="940" y1="300" x2="864.1" y2="490.4" stroke="#0e6e63" stroke-width="0.9" opacity=".5"/><line x1="940" y1="300" x2="853.9" y2="486.1" stroke="#0e6e63" stroke-width="0.9" opacity=".5"/><line x1="940" y1="300" x2="844.0" y2="481.1" stroke="#0e6e63" stroke-width="0.9" opacity=".5"/><line x1="940" y1="300" x2="834.3" y2="475.7" stroke="#0e6e63" stroke-width="0.9" opacity=".5"/><line x1="940" y1="300" x2="825.0" y2="469.7" stroke="#0e6e63" stroke-width="0.9" opacity=".5"/><line x1="940" y1="300" x2="815.9" y2="463.2" stroke="#0e6e63" stroke-width="0.9" opacity=".5"/><line x1="940" y1="300" x2="807.3" y2="456.2" stroke="#0e6e63" stroke-width="0.9" opacity=".5"/><line x1="940" y1="300" x2="799.0" y2="448.8" stroke="#0e6e63" stroke-width="0.9" opacity=".5"/><line x1="940" y1="300" x2="791.2" y2="441.0" stroke="#0e6e63" stroke-width="0.9" opacity=".5"/><line x1="940" y1="300" x2="783.8" y2="432.7" stroke="#0e6e63" stroke-width="0.9" opacity=".5"/><line x1="940" y1="300" x2="776.8" y2="424.1" stroke="#0e6e63" stroke-width="0.9" opacity=".5"/><line x1="940" y1="300" x2="770.3" y2="415.0" stroke="#0e6e63" stroke-width="0.9" opacity=".5"/><line x1="940" y1="300" x2="764.3" y2="405.7" stroke="#0e6e63" stroke-width="0.9" opacity=".5"/><line x1="940" y1="300" x2="758.9" y2="396.0" stroke="#0e6e63" stroke-width="0.9" opacity=".5"/><line x1="940" y1="300" x2="753.9" y2="386.1" stroke="#0e6e63" stroke-width="0.9" opacity=".5"/><line x1="940" y1="300" x2="749.6" y2="375.9" stroke="#0e6e63" stroke-width="0.9" opacity=".5"/><line x1="940" y1="300" x2="745.7" y2="365.5" stroke="#0e6e63" stroke-width="0.9" opacity=".5"/><line x1="940" y1="300" x2="742.5" y2="354.8" stroke="#0e6e63" stroke-width="0.9" opacity=".5"/><line x1="940" y1="300" x2="739.8" y2="344.1" stroke="#0e6e63" stroke-width="0.9" opacity=".5"/><line x1="940" y1="300" x2="737.7" y2="333.2" stroke="#0e6e63" stroke-width="0.9" opacity=".5"/><line x1="940" y1="300" x2="736.2" y2="322.2" stroke="#0e6e63" stroke-width="0.9" opacity=".5"/><line x1="940" y1="300" x2="735.3" y2="311.1" stroke="#0e6e63" stroke-width="0.9" opacity=".5"/><line x1="940" y1="300" x2="735.0" y2="300.0" stroke="#0e6e63" stroke-width="0.9" opacity=".5"/><line x1="940" y1="300" x2="735.3" y2="288.9" stroke="#0e6e63" stroke-width="0.9" opacity=".5"/><line x1="940" y1="300" x2="736.2" y2="277.8" stroke="#0e6e63" stroke-width="0.9" opacity=".5"/><line x1="940" y1="300" x2="737.7" y2="266.8" stroke="#0e6e63" stroke-width="0.9" opacity=".5"/><line x1="940" y1="300" x2="739.8" y2="255.9" stroke="#0e6e63" stroke-width="0.9" opacity=".5"/><line x1="940" y1="300" x2="742.5" y2="245.2" stroke="#0e6e63" stroke-width="0.9" opacity=".5"/><line x1="940" y1="300" x2="745.7" y2="234.5" stroke="#0e6e63" stroke-width="0.9" opacity=".5"/><line x1="940" y1="300" x2="749.6" y2="224.1" stroke="#0e6e63" stroke-width="0.9" opacity=".5"/><line x1="940" y1="300" x2="753.9" y2="213.9" stroke="#0e6e63" stroke-width="0.9" opacity=".5"/><line x1="940" y1="300" x2="758.9" y2="204.0" stroke="#0e6e63" stroke-width="0.9" opacity=".5"/><line x1="940" y1="300" x2="764.3" y2="194.3" stroke="#0e6e63" stroke-width="0.9" opacity=".5"/><line x1="940" y1="300" x2="770.3" y2="185.0" stroke="#0e6e63" stroke-width="0.9" opacity=".5"/><line x1="940" y1="300" x2="776.8" y2="175.9" stroke="#0e6e63" stroke-width="0.9" opacity=".5"/><line x1="940" y1="300" x2="783.8" y2="167.3" stroke="#0e6e63" stroke-width="0.9" opacity=".5"/><line x1="940" y1="300" x2="791.2" y2="159.0" stroke="#0e6e63" stroke-width="0.9" opacity=".5"/><line x1="940" y1="300" x2="799.0" y2="151.2" stroke="#0e6e63" stroke-width="0.9" opacity=".5"/><line x1="940" y1="300" x2="807.3" y2="143.8" stroke="#0e6e63" stroke-width="0.9" opacity=".5"/><line x1="940" y1="300" x2="815.9" y2="136.8" stroke="#0e6e63" stroke-width="0.9" opacity=".5"/><line x1="940" y1="300" x2="825.0" y2="130.3" stroke="#0e6e63" stroke-width="0.9" opacity=".5"/><line x1="940" y1="300" x2="834.3" y2="124.3" stroke="#0e6e63" stroke-width="0.9" opacity=".5"/><line x1="940" y1="300" x2="844.0" y2="118.9" stroke="#0e6e63" stroke-width="0.9" opacity=".5"/><line x1="940" y1="300" x2="853.9" y2="113.9" stroke="#0e6e63" stroke-width="0.9" opacity=".5"/><line x1="940" y1="300" x2="864.1" y2="109.6" stroke="#0e6e63" stroke-width="0.9" opacity=".5"/><line x1="940" y1="300" x2="874.5" y2="105.7" stroke="#0e6e63" stroke-width="0.9" opacity=".5"/><line x1="940" y1="300" x2="885.2" y2="102.5" stroke="#0e6e63" stroke-width="0.9" opacity=".5"/><line x1="940" y1="300" x2="895.9" y2="99.8" stroke="#0e6e63" stroke-width="0.9" opacity=".5"/><line x1="940" y1="300" x2="906.8" y2="97.7" stroke="#0e6e63" stroke-width="0.9" opacity=".5"/><line x1="940" y1="300" x2="917.8" y2="96.2" stroke="#0e6e63" stroke-width="0.9" opacity=".5"/><line x1="940" y1="300" x2="928.9" y2="95.3" stroke="#0e6e63" stroke-width="0.9" opacity=".5"/><circle cx="940.0" cy="95.0" r="4.5" fill="#0e6e63"/><circle cx="951.1" cy="95.3" r="4.5" fill="#0e6e63"/><circle cx="962.2" cy="96.2" r="4.5" fill="#0e6e63"/><circle cx="973.2" cy="97.7" r="4.5" fill="#0e6e63"/><circle cx="984.1" cy="99.8" r="4.5" fill="#0e6e63"/><circle cx="994.8" cy="102.5" r="4.5" fill="#0e6e63"/><circle cx="1005.5" cy="105.7" r="4.5" fill="#0e6e63"/><circle cx="1015.9" cy="109.6" r="4.5" fill="#0e6e63"/><circle cx="1026.1" cy="113.9" r="4.5" fill="#0e6e63"/><circle cx="1036.0" cy="118.9" r="4.5" fill="#0e6e63"/><circle cx="1045.7" cy="124.3" r="4.5" fill="#0e6e63"/><circle cx="1055.0" cy="130.3" r="4.5" fill="#0e6e63"/><circle cx="1064.1" cy="136.8" r="4.5" fill="#0e6e63"/><circle cx="1072.7" cy="143.8" r="4.5" fill="#0e6e63"/><circle cx="1081.0" cy="151.2" r="4.5" fill="#0e6e63"/><circle cx="1088.8" cy="159.0" r="4.5" fill="#0e6e63"/><circle cx="1096.2" cy="167.3" r="4.5" fill="#0e6e63"/><circle cx="1103.2" cy="175.9" r="4.5" fill="#0e6e63"/><circle cx="1109.7" cy="185.0" r="4.5" fill="#0e6e63"/><circle cx="1115.7" cy="194.3" r="4.5" fill="#0e6e63"/><circle cx="1121.1" cy="204.0" r="4.5" fill="#0e6e63"/><circle cx="1126.1" cy="213.9" r="4.5" fill="#0e6e63"/><circle cx="1130.4" cy="224.1" r="4.5" fill="#0e6e63"/><circle cx="1134.3" cy="234.5" r="4.5" fill="#0e6e63"/><circle cx="1137.5" cy="245.2" r="4.5" fill="#0e6e63"/><circle cx="1140.2" cy="255.9" r="4.5" fill="#0e6e63"/><circle cx="1142.3" cy="266.8" r="4.5" fill="#0e6e63"/><circle cx="1143.8" cy="277.8" r="4.5" fill="#0e6e63"/><circle cx="1144.7" cy="288.9" r="4.5" fill="#0e6e63"/><circle cx="1145.0" cy="300.0" r="4.5" fill="#0e6e63"/><circle cx="1144.7" cy="311.1" r="4.5" fill="#0e6e63"/><circle cx="1143.8" cy="322.2" r="4.5" fill="#0e6e63"/><circle cx="1142.3" cy="333.2" r="4.5" fill="#0e6e63"/><circle cx="1140.2" cy="344.1" r="4.5" fill="#0e6e63"/><circle cx="1137.5" cy="354.8" r="4.5" fill="#0e6e63"/><circle cx="1134.3" cy="365.5" r="4.5" fill="#0e6e63"/><circle cx="1130.4" cy="375.9" r="4.5" fill="#0e6e63"/><circle cx="1126.1" cy="386.1" r="4.5" fill="#0e6e63"/><circle cx="1121.1" cy="396.0" r="4.5" fill="#0e6e63"/><circle cx="1115.7" cy="405.7" r="4.5" fill="#0e6e63"/><circle cx="1109.7" cy="415.0" r="4.5" fill="#0e6e63"/><circle cx="1103.2" cy="424.1" r="4.5" fill="#0e6e63"/><circle cx="1096.2" cy="432.7" r="4.5" fill="#0e6e63"/><circle cx="1088.8" cy="441.0" r="4.5" fill="#0e6e63"/><circle cx="1081.0" cy="448.8" r="4.5" fill="#0e6e63"/><circle cx="1072.7" cy="456.2" r="4.5" fill="#0e6e63"/><circle cx="1064.1" cy="463.2" r="4.5" fill="#0e6e63"/><circle cx="1055.0" cy="469.7" r="4.5" fill="#0e6e63"/><circle cx="1045.7" cy="475.7" r="4.5" fill="#0e6e63"/><circle cx="1036.0" cy="481.1" r="4.5" fill="#0e6e63"/><circle cx="1026.1" cy="486.1" r="4.5" fill="#0e6e63"/><circle cx="1015.9" cy="490.4" r="4.5" fill="#0e6e63"/><circle cx="1005.5" cy="494.3" r="4.5" fill="#0e6e63"/><circle cx="994.8" cy="497.5" r="4.5" fill="#0e6e63"/><circle cx="984.1" cy="500.2" r="4.5" fill="#0e6e63"/><circle cx="973.2" cy="502.3" r="4.5" fill="#0e6e63"/><circle cx="962.2" cy="503.8" r="4.5" fill="#0e6e63"/><circle cx="951.1" cy="504.7" r="4.5" fill="#0e6e63"/><circle cx="940.0" cy="505.0" r="4.5" fill="#0e6e63"/><circle cx="928.9" cy="504.7" r="4.5" fill="#0e6e63"/><circle cx="917.8" cy="503.8" r="4.5" fill="#0e6e63"/><circle cx="906.8" cy="502.3" r="4.5" fill="#0e6e63"/><circle cx="895.9" cy="500.2" r="4.5" fill="#0e6e63"/><circle cx="885.2" cy="497.5" r="4.5" fill="#0e6e63"/><circle cx="874.5" cy="494.3" r="4.5" fill="#0e6e63"/><circle cx="864.1" cy="490.4" r="4.5" fill="#0e6e63"/><circle cx="853.9" cy="486.1" r="4.5" fill="#0e6e63"/><circle cx="844.0" cy="481.1" r="4.5" fill="#0e6e63"/><circle cx="834.3" cy="475.7" r="4.5" fill="#0e6e63"/><circle cx="825.0" cy="469.7" r="4.5" fill="#0e6e63"/><circle cx="815.9" cy="463.2" r="4.5" fill="#0e6e63"/><circle cx="807.3" cy="456.2" r="4.5" fill="#0e6e63"/><circle cx="799.0" cy="448.8" r="4.5" fill="#0e6e63"/><circle cx="791.2" cy="441.0" r="4.5" fill="#0e6e63"/><circle cx="783.8" cy="432.7" r="4.5" fill="#0e6e63"/><circle cx="776.8" cy="424.1" r="4.5" fill="#0e6e63"/><circle cx="770.3" cy="415.0" r="4.5" fill="#0e6e63"/><circle cx="764.3" cy="405.7" r="4.5" fill="#0e6e63"/><circle cx="758.9" cy="396.0" r="4.5" fill="#0e6e63"/><circle cx="753.9" cy="386.1" r="4.5" fill="#0e6e63"/><circle cx="749.6" cy="375.9" r="4.5" fill="#0e6e63"/><circle cx="745.7" cy="365.5" r="4.5" fill="#0e6e63"/><circle cx="742.5" cy="354.8" r="4.5" fill="#0e6e63"/><circle cx="739.8" cy="344.1" r="4.5" fill="#0e6e63"/><circle cx="737.7" cy="333.2" r="4.5" fill="#0e6e63"/><circle cx="736.2" cy="322.2" r="4.5" fill="#0e6e63"/><circle cx="735.3" cy="311.1" r="4.5" fill="#0e6e63"/><circle cx="735.0" cy="300.0" r="4.5" fill="#0e6e63"/><circle cx="735.3" cy="288.9" r="4.5" fill="#0e6e63"/><circle cx="736.2" cy="277.8" r="4.5" fill="#0e6e63"/><circle cx="737.7" cy="266.8" r="4.5" fill="#0e6e63"/><circle cx="739.8" cy="255.9" r="4.5" fill="#0e6e63"/><circle cx="742.5" cy="245.2" r="4.5" fill="#0e6e63"/><circle cx="745.7" cy="234.5" r="4.5" fill="#0e6e63"/><circle cx="749.6" cy="224.1" r="4.5" fill="#0e6e63"/><circle cx="753.9" cy="213.9" r="4.5" fill="#0e6e63"/><circle cx="758.9" cy="204.0" r="4.5" fill="#0e6e63"/><circle cx="764.3" cy="194.3" r="4.5" fill="#0e6e63"/><circle cx="770.3" cy="185.0" r="4.5" fill="#0e6e63"/><circle cx="776.8" cy="175.9" r="4.5" fill="#0e6e63"/><circle cx="783.8" cy="167.3" r="4.5" fill="#0e6e63"/><circle cx="791.2" cy="159.0" r="4.5" fill="#0e6e63"/><circle cx="799.0" cy="151.2" r="4.5" fill="#0e6e63"/><circle cx="807.3" cy="143.8" r="4.5" fill="#0e6e63"/><circle cx="815.9" cy="136.8" r="4.5" fill="#0e6e63"/><circle cx="825.0" cy="130.3" r="4.5" fill="#0e6e63"/><circle cx="834.3" cy="124.3" r="4.5" fill="#0e6e63"/><circle cx="844.0" cy="118.9" r="4.5" fill="#0e6e63"/><circle cx="853.9" cy="113.9" r="4.5" fill="#0e6e63"/><circle cx="864.1" cy="109.6" r="4.5" fill="#0e6e63"/><circle cx="874.5" cy="105.7" r="4.5" fill="#0e6e63"/><circle cx="885.2" cy="102.5" r="4.5" fill="#0e6e63"/><circle cx="895.9" cy="99.8" r="4.5" fill="#0e6e63"/><circle cx="906.8" cy="97.7" r="4.5" fill="#0e6e63"/><circle cx="917.8" cy="96.2" r="4.5" fill="#0e6e63"/><circle cx="928.9" cy="95.3" r="4.5" fill="#0e6e63"/><circle cx="940" cy="300" r="30" fill="#0e6e63"/><text x="940" y="374" class="h-note" text-anchor="middle">BT Group — £3.74bn</text><text x="940" y="71" class="h-note" text-anchor="middle">116 spellings, 57 public bodies</text><text x="56" y="240" class="h-note">Capita appears under 141 spellings, G4S under 91, and HMRC</text><text x="56" y="260" class="h-note">itself is paid under 76 — one of them misspelt. No</text><text x="56" y="280" class="h-note">identifier is published, only free text, so following one</text><text x="56" y="300" class="h-note">company across the state means untangling every variant by</text><text x="56" y="320" class="h-note">hand. We did: every match was eyeballed, and 65 ambiguous</text><text x="56" y="340" class="h-note">ones were thrown out and listed.</text><rect x="0" y="538" width="1200" height="76" fill="#e4f1ee"/><rect x="0" y="538" width="1200" height="2" fill="#0e6e63"/><text x="28" y="562" class="p-key">MEASURED FROM</text><text x="28" y="578" class="p-mono">analysis/supplier/variants.csv — 18 companies, every variant eyeballed, exclusions in variants_excluded.csv</text><text x="28" y="604" class="p-val">open-data.org.uk · measured 17 August 2026</text><text x="1172" y="562" class="p-key" text-anchor="end">ARGUMENT BY</text><text x="1172" y="579" class="p-val" text-anchor="end">Joined Up</text></svg>